<svg xmlns="http://www.w3.org/2000/svg" viewBox="0 0 79 105.33"><defs><style>.cls-1{fill:#ee1f4c;}</style></defs><title>11Asset 11</title><g id="Layer_2" data-name="Layer 2"><g id="bold"><path class="cls-1" d="M69.12,39.5H65.83V26.33a26.33,26.33,0,0,0-52.66,0V39.5H9.87A9.88,9.88,0,0,0,0,49.37V95.46a9.88,9.88,0,0,0,9.87,9.87H69.12A9.89,9.89,0,0,0,79,95.46V49.37A9.89,9.89,0,0,0,69.12,39.5ZM21.94,26.33a17.56,17.56,0,0,1,35.12,0V39.5H21.94Zm22,47.06v10a4.39,4.39,0,1,1-8.78,0v-10a8.78,8.78,0,1,1,8.78,0Z"/></g></g></svg>