<svg xmlns="http://www.w3.org/2000/svg" viewBox="0 0 81.91 113.45"><defs><style>.cls-1{fill:#21ed73;}</style></defs><title>11Asset 21</title><g id="Layer_2" data-name="Layer 2"><g id="bold"><path class="cls-1" d="M41.44,53.77H76.23c3.83,0,5.57,1.58,5.59,5.39q.11,21,.09,42.06a16.89,16.89,0,0,1-.35,3.16,6.93,6.93,0,0,1-5.27,5.84,88.18,88.18,0,0,1-11.3,2,232.45,232.45,0,0,1-51.33-.37A60.2,60.2,0,0,1,7,110.67c-4.5-1.07-6.56-3.59-6.89-8.18C0,101.62,0,100.74,0,99.86Q0,81.11,0,62.35c0-1.34.07-2.68.17-4,.22-2.64,2.33-4.55,5.37-4.56,8.23,0,16.45,0,24.68.07H41.44ZM36.89,87.36h0c0,1.57,0,3.14,0,4.7A4.06,4.06,0,1,0,45,92c0-2.95,0-5.91,0-8.86a2.62,2.62,0,0,1,1.17-2.41,8.27,8.27,0,0,0,2.1-10.59A8.45,8.45,0,0,0,38.1,66.31c-5.25,1.89-7.7,9-3.33,13.33a6.76,6.76,0,0,1,2.13,5.92C36.86,86.16,36.89,86.76,36.89,87.36Z"/><path class="cls-1" d="M10.83,39.43c0-4.1-.28-8.23.05-12.31C12.22,10.27,28.94-2.51,45.63.42,61.33,3.17,71.84,16.13,71.31,32c0,1-.34,1.29-1.3,1.27-2.87,0-5.73-.07-8.6,0-1.25,0-1.59-.4-1.55-1.59a19.07,19.07,0,0,0-4.43-13.49A18.88,18.88,0,0,0,22.09,30.06c-.06,6.6,0,13.2,0,19.8,0,1.18-.27,1.64-1.53,1.6-2.87-.09-5.73-.06-8.6,0-1,0-1.38-.31-1.37-1.35.05-3.56,0-7.11,0-10.67Z"/></g></g></svg>