<svg width="21" height="23" viewBox="0 0 21 23" fill="none" xmlns="http://www.w3.org/2000/svg">
<path d="M10.271 11.0792C11.9254 11.0792 13.3581 10.5333 14.5286 9.45619C15.6991 8.3793 16.2925 7.06166 16.2925 5.53941C16.2925 4.01768 15.6991 2.69986 14.5284 1.62262C13.3577 0.545904 11.9253 0 10.271 0C8.61639 0 7.18416 0.545904 6.01362 1.6228C4.84308 2.69969 4.24951 4.01751 4.24951 5.53941C4.24951 7.06166 4.84308 8.37948 6.01381 9.45637C7.18454 10.5331 8.61696 11.0792 10.271 11.0792Z" fill="black"/>
<path d="M20.8071 17.6858C20.7733 17.2376 20.705 16.7488 20.6045 16.2325C20.503 15.7124 20.3724 15.2207 20.216 14.7713C20.0544 14.3068 19.8347 13.8482 19.5631 13.4086C19.2812 12.9524 18.9501 12.5551 18.5785 12.2282C18.19 11.8862 17.7143 11.6112 17.1642 11.4106C16.6161 11.2111 16.0086 11.11 15.3587 11.11C15.1035 11.11 14.8567 11.2064 14.3801 11.4919C14.0867 11.6679 13.7436 11.8714 13.3606 12.0966C13.0331 12.2885 12.5895 12.4684 12.0415 12.6312C11.5068 12.7904 10.964 12.8711 10.4282 12.8711C9.89246 12.8711 9.34982 12.7904 8.81462 12.6312C8.26721 12.4686 7.82356 12.2887 7.49645 12.0967C7.11708 11.8737 6.77376 11.6702 6.47602 11.4917C5.99995 11.2062 5.75294 11.1099 5.49774 11.1099C4.84772 11.1099 4.24042 11.2111 3.69244 11.4108C3.14274 11.611 2.66685 11.886 2.27795 12.2283C1.90659 12.5554 1.57528 12.9525 1.29375 13.4086C1.02234 13.8482 0.802612 14.3067 0.640869 14.7715C0.484657 15.2209 0.354004 15.7124 0.252533 16.2325C0.152016 16.7481 0.0837326 17.2371 0.0499726 17.6863C0.0167847 18.1264 0 18.5832 0 19.0445C0 20.2451 0.414848 21.2171 1.23291 21.9339C2.04086 22.6412 3.10993 23.0001 4.40998 23.0001H16.4476C17.7477 23.0001 18.8164 22.6414 19.6245 21.9339C20.4428 21.2176 20.8576 20.2455 20.8576 19.0443C20.8574 18.5809 20.8405 18.1238 20.8071 17.6858Z" fill="black"/>
</svg>
